<svg viewBox="-5.5 -12.5 11 25" xmlns="http://www.w3.org/2000/svg" version="1.1">

    <style>
        line,
        polyline {
            fill: none;
            stroke: black;
            stroke-width: 1;
            stroke-linecap: square;
            stroke-linejoin: miter;
        }
    </style>

    <line x1="0" x2="0" y1="-11" y2="-10" />
    <line x1="-1" x2="-1" y1="-10" y2="-6" />
    <line x1="1" x2="1" y1="-10" y2="-6" />
    <line x1="-2" x2="2" y1="-10" y2="-10" />
    <line x1="-3" x2="3" y1="-8" y2="-8" />
    <line x1="-2" x2="2" y1="-6" y2="-6" />

    <line x1="0" x2="0" y1="-6" y2="6" />
    <polyline points="0,-4 -4,-4, -4,4" />
    <polyline points="0,-4  4,-4,  4,4" />
    <polyline points="0,-2 -2,-2, -2,2 0,2" />
    <polyline points="0,-2  2,-2,  2,2 0,2" />
    <line x1="-2" x2="2" y1="0" y2="0" />
    <line x1="-1" x2="1" y1="4" y2="4" />
    <line x1="-2" x2="2" y1="6" y2="6" />

    <polyline points="-1,6 -1,10 -3,10" />
    <polyline points=" 1,6  1,10  3,10" />
    <line x1="-1" x2="-2" y1="8" y2="8" />
    <line x1="1" x2="2" y1="8" y2="8" />

</svg>