<svg width="25" height="25" xmlns="http://www.w3.org/2000/svg" version="1.1">

      <defs>
            <style>
                  <![CDATA[
                  #my-line {
                        fill: none;
                        stroke: black;
                        stroke-width: 1;
                        stroke-linecap: square;
                        stroke-linejoin: miter;
                  }
                  ]]>
            </style>
      </defs>

      <line id="my-line" x1="12.5" x2="12.5" y1="1.5" y2="2.5" />
      <line id="my-line" x1="10.5" x2="14.5" y1="2.5" y2="2.5" />
      <line id="my-line" x1="9.5" x2="15.5" y1="4.5" y2="4.5" />
      <line id="my-line" x1="10.5" x2="14.5" y1="6.5" y2="6.5" />
      <line id="my-line" x1="11.5" x2="11.5" y1="2.5" y2="6.5" />
      <line id="my-line" x1="13.5" x2="13.5" y1="2.5" y2="6.5" />

      <polyline id="my-line" points="8.5,16.5 8.5,8.5 16.5,8.5 16.5,16.5" />
      <polyline id="my-line" points="10.5,14.5 10.5,10.5 14.5,10.5 14.5,14.5 10.5,14.5" />
      <line id="my-line" x1="10.5" x2="14.5" y1="12.5" y2="12.5" />
      <line id="my-line" x1="11.5" x2="13.5" y1="16.5" y2="16.5" />
      <line id="my-line" x1="10.5" x2="14.5" y1="18.5" y2="18.5" />
      <line id="my-line" x1="12.5" x2="12.5" y1="6.5" y2="18.5" />

      <polyline id="my-line" points="11.5,18.5 11.5,22.5 9.5,22.5" />
      <polyline id="my-line" points="13.5,18.5 13.5,22.5 15.5,22.5" />
      <line id="my-line" x1="10.5" x2="11.5" y1="20.5" y2="20.5" />
      <line id="my-line" x1="13.5" x2="14.5" y1="20.5" y2="20.5" />

</svg>
